<?xml version="1.0" standalone="no"?><!DOCTYPE svg PUBLIC "-//W3C//DTD SVG 1.1//EN" "http://www.w3.org/Graphics/SVG/1.1/DTD/svg11.dtd"><svg t="1620322780681" class="icon" viewBox="0 0 1024 1024" version="1.1" xmlns="http://www.w3.org/2000/svg" p-id="6579" xmlns:xlink="http://www.w3.org/1999/xlink" width="32" height="32"><defs><style type="text/css"></style></defs><path d="M512 512m-512 0a512 512 0 1 0 1024 0 512 512 0 1 0-1024 0Z" fill="#515151" p-id="6580" data-spm-anchor-id="a313x.7781069.0.i10" class=""></path><path d="M899.145143 217.6L411.501714 705.097143a73.142857 73.142857 0 1 0 103.424 103.424l487.643429-487.570286a73.142857 73.142857 0 0 0-103.424-103.424z" fill="#bfbfbf" p-id="6581" data-spm-anchor-id="a313x.7781069.0.i9" class=""></path><path d="M514.925714 217.6l487.643429 487.570286a73.142857 73.142857 0 1 1-103.424 103.424L411.501714 321.097143A73.142857 73.142857 0 0 1 514.925714 217.6z" fill="#bfbfbf" p-id="6582" data-spm-anchor-id="a313x.7781069.0.i8" class=""></path></svg>